<svg width="51" height="63" viewBox="0 0 51 63" fill="none" xmlns="http://www.w3.org/2000/svg">
<path d="M29.3525 6.74135L44.383 21.7718V56.5316H7.0403V6.74135H29.3525ZM31.9354 0.517578H7.0403C3.61723 0.517578 0.816528 3.31828 0.816528 6.74135V56.5316C0.816528 59.9546 3.61723 62.7553 7.0403 62.7553H44.383C47.806 62.7553 50.6067 59.9546 50.6067 56.5316V19.1889L31.9354 0.517578ZM25.7116 37.8602C29.1347 37.8602 31.9354 35.0595 31.9354 31.6365C31.9354 28.2134 29.1347 25.4127 25.7116 25.4127C22.2886 25.4127 19.4879 28.2134 19.4879 31.6365C19.4879 35.0595 22.2886 37.8602 25.7116 37.8602ZM38.1592 48.534C38.1592 46.0134 36.6655 43.7728 34.3627 42.777C31.7176 41.6256 28.7924 40.9721 25.7116 40.9721C22.6309 40.9721 19.7057 41.6256 17.0606 42.777C14.7578 43.7728 13.2641 46.0134 13.2641 48.534V50.3078H38.1592V48.534Z" fill="#E91D63"/>
</svg>
