<svg width="76" height="51" viewBox="0 0 76 51" fill="none" xmlns="http://www.w3.org/2000/svg">
<path d="M0 46.4829V4.51714C0 4.46857 0.0732883 4.00714 0.219865 3.13286L25.0646 24.2614L0.293153 47.94C0.0977178 47.26 0 46.7743 0 46.4829ZM3.29797 0.218571C3.63999 0.072857 4.05529 0 4.54388 0H71.4561C71.8959 0 72.3356 0.072857 72.7753 0.218571L47.8573 21.42L44.5593 24.0429L38.0366 29.3614L31.514 24.0429L28.216 21.42L3.29797 0.218571ZM3.37126 50.7814L28.3626 26.9571L38.0366 34.7529L47.7107 26.9571L72.702 50.7814C72.3111 50.9271 71.8959 51 71.4561 51H4.54388C4.15301 51 3.76213 50.9271 3.37126 50.7814ZM51.0087 24.2614L75.7801 3.13286C75.9267 3.57 76 4.03143 76 4.51714V46.4829C76 46.92 75.9267 47.4057 75.7801 47.94L51.0087 24.2614Z" fill="#E91D63"/>
</svg>
