<svg width="66" height="67" viewBox="0 0 66 67" fill="none" xmlns="http://www.w3.org/2000/svg">
<g clip-path="url(#clip0_22_269)">
<path d="M56.04 56.5156H46.2994V41.2524C46.2994 37.6127 46.2254 32.9288 41.2236 32.9288C36.145 32.9288 35.3693 36.8892 35.3693 40.9838V56.5156H25.6287V25.1286H34.9856V29.4069H35.1117C36.419 26.9403 39.5983 24.3365 44.348 24.3365C54.2174 24.3365 56.0428 30.8321 56.0428 39.2873V56.5156H56.04ZM14.6274 20.8339C11.4919 20.8339 8.9732 18.2959 8.9732 15.1742C8.9732 12.0553 11.4947 9.52008 14.6274 9.52008C17.7518 9.52008 20.2843 12.0553 20.2843 15.1742C20.2843 18.2959 17.7491 20.8339 14.6274 20.8339ZM19.5114 56.5156H9.74335V25.1286H19.5114V56.5156ZM60.9131 0.461914H4.85386C2.17067 0.461914 0 2.58325 0 5.20066V61.5011C0 64.1212 2.17067 66.2398 4.85386 66.2398H60.9048C63.5853 66.2398 65.7779 64.1212 65.7779 61.5011V5.20066C65.7779 2.58325 63.5853 0.461914 60.9048 0.461914L60.9131 0.461914Z" fill="#E91D63"/>
</g>
<defs>
<clipPath id="clip0_22_269">
<rect width="65.7779" height="65.7779" fill="white" transform="translate(0 0.461914)"/>
</clipPath>
</defs>
</svg>
